<?xml version="1.0" standalone="no"?>
<!DOCTYPE svg PUBLIC "-//W3C//DTD SVG 20010904//EN"
 "http://www.w3.org/TR/2001/REC-SVG-20010904/DTD/svg10.dtd">
<svg version="1.0" xmlns="http://www.w3.org/2000/svg"
 width="100.000000pt" height="100.000000pt" viewBox="0 0 100.000000 100.000000"
 preserveAspectRatio="xMidYMid meet">

<g transform="translate(0.000000,100.000000) scale(0.100000,-0.100000)"
fill="#000000" stroke="none">
<path d="M740 921 c0 -43 19 -64 52 -57 34 7 58 -7 57 -33 0 -11 -3 -9 -9 7
-10 25 -38 30 -46 8 -3 -8 -12 -12 -20 -9 -24 9 -15 -12 19 -45 31 -30 66 -45
52 -22 -3 6 3 10 14 10 21 0 41 27 41 53 0 28 -35 58 -80 68 -25 6 -53 17 -62
26 -17 15 -18 14 -18 -6z"/>
<path d="M432 886 c-12 -6 -29 -22 -38 -34 -24 -34 6 -29 41 8 32 34 31 44 -3
26z"/>
<path d="M540 891 c0 -4 7 -15 17 -22 15 -13 13 -15 -13 -21 -28 -7 -28 -7 4
-4 18 1 35 -1 38 -6 3 -4 12 -8 20 -8 12 0 12 4 4 20 -12 21 -70 56 -70 41z"/>
<path d="M173 833 c39 -39 49 -45 57 -33 13 21 -45 80 -79 80 -24 0 -23 -2 22
-47z"/>
<path d="M351 854 c-28 -35 -26 -52 5 -64 33 -13 34 -13 34 5 0 9 -9 15 -21
15 l-20 0 20 26 c12 15 21 31 21 35 0 17 -19 9 -39 -17z"/>
<path d="M610 874 c0 -3 9 -19 21 -35 17 -24 18 -29 5 -29 -9 0 -16 -4 -16
-10 0 -14 23 -12 44 3 17 12 16 15 -9 45 -24 29 -45 41 -45 26z"/>
<path d="M105 841 c-11 -34 5 -51 49 -52 l41 -2 -38 -6 -39 -6 26 -24 c14 -14
27 -23 29 -20 2 2 8 16 14 30 10 24 8 30 -26 63 -42 41 -47 43 -56 17z"/>
<path d="M307 843 c-20 -22 -38 -69 -30 -77 10 -10 83 -7 83 4 0 6 -13 10 -30
10 -35 0 -34 -2 -14 39 19 37 14 49 -9 24z"/>
<path d="M670 855 c0 -14 32 -65 40 -65 15 0 12 23 -6 48 -14 20 -34 30 -34
17z"/>
<path d="M430 840 c0 -13 20 -13 40 0 12 8 9 10 -12 10 -16 0 -28 -4 -28 -10z"/>
<path d="M247 800 c-9 -13 -17 -37 -17 -52 0 -23 4 -28 24 -28 32 0 56 10 56
22 0 6 -12 8 -30 5 -33 -7 -35 -5 -19 24 5 11 9 28 7 37 -3 14 -6 13 -21 -8z"/>
<path d="M400 700 c0 -126 9 -161 44 -178 40 -19 54 -21 90 -11 57 16 67 40
67 170 1 63 0 120 0 127 -1 9 -28 12 -101 12 l-100 0 0 -120z m150 74 c0 -9 8
-23 18 -30 16 -13 16 -15 -2 -29 -17 -13 -18 -15 -3 -15 21 0 23 -29 2 -36
-11 -4 -15 -21 -15 -55 0 -54 -14 -63 -45 -29 -17 19 -19 19 -37 3 -14 -13
-21 -14 -30 -5 -10 10 -6 18 14 39 23 22 29 24 42 13 14 -11 16 -5 16 59 l0
71 -30 0 c-20 0 -30 5 -30 15 0 11 12 15 50 15 40 0 50 -3 50 -16z"/>
<path d="M717 782 l-27 -28 33 -32 34 -33 26 25 c15 14 27 29 27 34 0 9 -52
62 -61 62 -3 0 -17 -13 -32 -28z"/>
<path d="M657 782 c-9 -2 -15 -8 -12 -13 8 -12 42 -12 49 0 7 11 -13 19 -37
13z"/>
<path d="M196 754 c-10 -26 -7 -84 4 -84 6 0 27 7 48 15 36 14 36 14 13 -3
-14 -9 -37 -22 -53 -29 -28 -12 -28 -12 -28 22 0 19 -4 36 -9 39 -12 8 -23
-39 -15 -69 8 -30 32 -32 67 -5 16 13 41 20 69 20 l43 1 -28 24 c-31 27 -48
30 -78 15 -18 -10 -19 -8 -13 30 7 40 -7 57 -20 24z"/>
<path d="M670 734 c0 -6 16 -25 35 -44 19 -19 35 -29 35 -24 0 6 -16 25 -35
44 -19 19 -35 29 -35 24z"/>
<path d="M830 713 c0 -14 -2 -15 -9 -4 -7 11 -13 10 -32 -9 l-24 -23 28 5 c21
4 27 2 23 -8 -3 -8 -1 -14 4 -14 6 0 10 -5 10 -11 0 -5 -10 -3 -22 5 -12 9
-29 16 -36 16 -23 0 4 -27 38 -38 23 -8 30 -7 34 5 10 24 7 81 -4 88 -5 3 -10
-2 -10 -12z"/>
<path d="M305 710 c3 -5 8 -10 11 -10 2 0 4 5 4 10 0 6 -5 10 -11 10 -5 0 -7
-4 -4 -10z"/>
<path d="M330 704 c0 -11 14 -33 30 -49 27 -26 30 -27 30 -9 0 11 -13 33 -30
49 -27 26 -30 27 -30 9z"/>
<path d="M637 692 c-21 -23 -24 -112 -4 -112 7 0 30 17 50 38 l37 38 -28 27
c-33 32 -34 32 -55 9z"/>
<path d="M863 653 c-7 -12 -13 -31 -13 -43 0 -20 -1 -20 -25 -4 -14 9 -29 14
-33 10 -8 -8 37 -45 55 -46 19 0 35 37 31 73 -3 31 -3 31 -15 10z"/>
<path d="M131 625 c-1 -50 10 -69 36 -61 23 7 59 43 51 51 -3 3 -17 -4 -31
-16 -19 -14 -27 -16 -27 -7 -1 7 -7 27 -15 43 l-13 30 -1 -40z"/>
<path d="M283 625 c16 -14 33 -23 38 -20 5 3 6 -1 3 -9 -5 -13 1 -16 30 -16
20 0 36 5 36 10 0 6 -5 10 -12 10 -6 0 -8 3 -5 7 4 3 0 15 -10 25 -11 12 -30
18 -62 18 l-46 -1 28 -24z"/>
<path d="M884 589 c-6 -8 -15 -24 -18 -36 -7 -22 -7 -22 -27 -2 -10 10 -24 19
-29 19 -16 0 6 -36 32 -54 21 -15 23 -14 41 14 20 32 21 85 1 59z"/>
<path d="M110 573 c0 -30 20 -73 35 -73 16 0 60 48 52 56 -4 4 -13 2 -20 -4
-8 -7 -17 -9 -21 -5 -4 4 -4 -1 0 -11 5 -14 4 -17 -4 -12 -7 4 -12 13 -12 20
0 7 -7 21 -15 32 -14 19 -14 18 -15 -3z"/>
<path d="M322 418 l3 -143 88 -5 87 -5 0 112 0 111 -35 12 c-19 6 -43 22 -54
36 -14 17 -29 24 -55 24 l-37 0 3 -142z m53 54 c7 19 71 23 82 5 3 -5 9 -3 14
4 6 9 8 0 8 -26 -1 -35 -2 -37 -9 -15 -7 21 -8 22 -9 5 -1 -29 -70 -36 -72 -8
-1 17 -2 17 -6 1 -6 -25 -20 -22 -27 5 -9 33 -6 56 4 32 7 -18 9 -18 15 -3z
m7 -107 c-5 -41 -18 -38 -24 5 -3 23 -1 30 12 30 12 0 15 -8 12 -35z m48 23
c0 -7 3 -22 6 -33 4 -16 0 -20 -19 -21 -20 -1 -24 2 -20 20 9 38 12 46 23 46
5 0 10 -6 10 -12z m35 2 c-4 -6 -1 -17 5 -25 12 -15 6 -35 -11 -35 -6 0 -7 5
-4 10 4 6 1 17 -5 25 -12 15 -6 35 11 35 6 0 7 -5 4 -10z"/>
<path d="M585 531 c-15 -17 -37 -31 -49 -33 -20 -3 -21 -10 -24 -116 l-3 -113
88 3 88 3 3 143 3 142 -39 0 c-29 0 -45 -7 -67 -29z m-34 -101 c6 0 7 -5 4
-10 -12 -20 -25 1 -23 38 l1 37 4 -32 c2 -18 9 -33 14 -33z m38 23 c0 15 6 27
11 27 15 0 12 -57 -4 -63 -20 -8 -26 2 -25 42 l2 36 7 -35 c7 -31 7 -32 9 -7z
m68 0 c-1 -46 -32 -46 -33 0 0 24 4 33 17 33 13 0 17 -8 16 -33z m-106 -65 c0
-10 2 -10 6 0 9 22 23 13 24 -15 l2 -28 4 28 c6 40 28 34 28 -8 0 -30 -3 -35
-22 -35 -13 0 -23 6 -23 13 0 8 -4 7 -10 -3 -9 -13 -10 -13 -10 0 0 13 -1 13
-10 0 -13 -21 -18 -10 -13 28 5 31 22 45 24 20z m113 -4 c12 -31 6 -50 -15
-50 -15 0 -19 5 -15 21 3 11 6 26 6 33 0 17 17 15 24 -4z"/>
<path d="M301 535 c-5 -36 -2 -316 4 -326 4 -5 2 -9 -4 -9 -5 0 -11 3 -13 8
-1 4 -19 5 -38 1 l-35 -6 29 -12 c17 -6 41 -11 55 -9 22 3 26 7 23 33 l-2 30
19 -35 19 -35 -39 -3 c-54 -4 -49 -22 6 -22 55 0 67 19 37 60 l-21 28 163 0
163 0 -16 -34 c-17 -36 -36 -47 -26 -14 4 11 2 20 -4 20 -16 0 -44 -48 -38
-64 7 -17 70 -32 87 -21 17 11 -8 25 -43 25 -16 0 -26 4 -23 9 4 5 23 5 46 -1
22 -6 52 -7 67 -3 25 6 26 8 9 17 -10 5 -30 8 -45 6 l-26 -4 15 33 c18 39 29
43 22 7 -4 -24 -3 -25 37 -22 23 2 40 8 39 13 -2 6 -16 9 -33 7 -20 -1 -26 1
-16 7 9 6 10 11 2 15 -7 5 -12 62 -13 164 l-2 157 -6 -145 -5 -145 -95 -5
c-52 -3 -138 -3 -190 0 l-95 5 -5 145 c-3 80 -7 136 -9 125z"/>
<path d="M887 512 c-9 -10 -17 -24 -17 -30 0 -19 -18 -14 -25 7 -6 18 -35 38
-35 23 0 -18 42 -73 53 -69 16 5 50 64 45 78 -2 6 -11 2 -21 -9z"/>
<path d="M100 504 c0 -12 12 -34 26 -49 l26 -28 19 24 c21 29 31 59 18 59 -5
0 -15 -11 -21 -25 l-11 -25 -28 32 c-25 29 -28 31 -29 12z"/>
<path d="M720 500 c0 -13 5 -20 13 -17 6 2 12 10 12 17 0 7 -6 15 -12 18 -8 2
-13 -5 -13 -18z"/>
<path d="M260 495 c0 -8 7 -15 15 -15 8 0 15 7 15 15 0 8 -7 15 -15 15 -8 0
-15 -7 -15 -15z"/>
<path d="M810 457 c0 -10 7 -31 15 -48 13 -25 19 -28 35 -19 25 13 55 58 46
68 -4 4 -18 -5 -31 -20 -27 -31 -35 -34 -35 -15 0 7 -7 22 -15 33 -13 18 -14
18 -15 1z"/>
<path d="M179 433 l-13 -33 -28 27 c-15 15 -31 24 -34 20 -9 -9 22 -54 46 -67
16 -9 22 -6 35 21 9 16 14 38 12 47 -3 12 -8 8 -18 -15z"/>
<path d="M197 397 c-4 -10 -7 -27 -7 -38 0 -17 -3 -16 -37 6 -20 14 -39 23
-42 19 -8 -8 56 -64 74 -64 17 0 28 36 23 71 -3 21 -4 22 -11 6z"/>
<path d="M800 386 c0 -62 29 -73 76 -29 19 18 24 28 16 31 -8 2 -24 -5 -36
-17 -24 -22 -36 -19 -36 10 0 10 -4 21 -10 24 -6 3 -10 -5 -10 -19z"/>
<path d="M220 327 c0 -40 -5 -44 -34 -22 -35 27 -54 17 -22 -11 40 -35 70 -29
74 15 2 18 -1 38 -7 44 -8 8 -11 0 -11 -26z"/>
<path d="M266 353 c-12 -12 -6 -33 9 -33 8 0 15 6 15 14 0 17 -14 28 -24 19z"/>
<path d="M777 346 c-6 -16 1 -76 10 -76 14 0 70 30 82 43 18 22 0 22 -41 1
-16 -9 -28 -12 -25 -7 3 4 0 19 -7 32 -11 20 -14 21 -19 7z"/>
<path d="M720 335 c0 -8 7 -15 15 -15 8 0 15 7 15 15 0 8 -7 15 -15 15 -8 0
-15 -7 -15 -15z"/>
<path d="M253 278 c5 -36 5 -37 -19 -27 -14 5 -33 9 -42 9 -32 0 12 -30 53
-37 l38 -6 -6 38 c-3 21 -12 43 -18 49 -9 8 -10 2 -6 -26z"/>
<path d="M720 281 c0 -10 7 -22 16 -25 8 -3 12 -11 8 -17 -4 -7 -3 -9 3 -6 5
3 37 -17 71 -45 35 -28 66 -48 69 -44 9 8 -137 156 -154 156 -7 0 -13 -9 -13
-19z"/>
<path d="M808 258 c9 -9 15 -9 24 0 9 9 7 12 -12 12 -19 0 -21 -3 -12 -12z"/>
<path d="M174 178 c-44 -49 -31 -62 20 -22 24 19 32 32 26 40 -6 6 -7 14 -3
17 3 4 4 7 1 7 -3 0 -23 -19 -44 -42z"/>
<path d="M389 192 c6 -10 7 -23 3 -27 -4 -5 -2 -5 5 -1 6 3 14 2 18 -4 3 -6
-4 -10 -17 -10 -14 0 -33 -7 -44 -15 -18 -13 -17 -14 17 -15 19 0 44 6 55 14
19 14 19 15 -2 42 -25 34 -51 46 -35 16z"/>
<path d="M440 180 c0 -5 9 -15 20 -22 25 -16 26 -28 2 -28 -10 0 -27 -7 -38
-15 -26 -20 1 -20 40 0 22 11 31 12 37 4 5 -8 8 -8 10 0 3 9 15 8 41 -4 21 -8
43 -15 50 -15 20 1 -23 30 -44 30 -24 0 -23 9 4 37 25 27 8 32 -18 6 -23 -24
-50 -24 -70 -2 -19 21 -34 25 -34 9z"/>
</g>
</svg>
