<?xml version="1.0" standalone="no"?>
<!DOCTYPE svg PUBLIC "-//W3C//DTD SVG 20010904//EN"
 "http://www.w3.org/TR/2001/REC-SVG-20010904/DTD/svg10.dtd">
<svg version="1.0" xmlns="http://www.w3.org/2000/svg"
 width="100.000000pt" height="100.000000pt" viewBox="0 0 100.000000 100.000000"
 preserveAspectRatio="xMidYMid meet">

<g transform="translate(0.000000,100.000000) scale(0.100000,-0.100000)"
fill="#000000" stroke="none">
<path d="M0 500 l0 -500 500 0 500 0 0 500 0 500 -500 0 -500 0 0 -500z m460
300 c0 -15 -7 -20 -25 -20 -45 0 -43 -30 3 -70 23 -19 42 -43 42 -53 0 -20 -8
-21 -46 -7 -19 7 -30 7 -40 -1 -21 -17 -1 -43 59 -77 42 -24 58 -40 71 -72 19
-47 19 -50 6 -50 -5 0 -16 14 -25 30 -18 34 -35 39 -35 10 0 -10 -5 -31 -12
-45 -15 -33 -5 -42 27 -21 24 16 29 16 50 2 13 -8 28 -31 35 -51 14 -43 43
-50 31 -7 -10 34 1 65 40 109 30 35 35 71 8 64 -8 -2 -22 -6 -31 -8 -29 -8
-21 20 17 68 36 45 43 73 24 85 -6 3 -24 -3 -40 -15 -32 -24 -59 -27 -59 -8 0
7 12 29 26 50 31 46 26 67 -16 67 -23 0 -30 4 -30 20 0 19 7 20 170 20 157 0
170 -1 170 -18 0 -11 -12 -23 -34 -30 -41 -15 -42 -18 -167 -340 l-94 -242
-85 2 -84 3 -108 275 c-107 273 -127 310 -169 310 -12 0 -19 7 -19 20 0 19 7
20 170 20 163 0 170 -1 170 -20z"/>
<path d="M391 496 c-14 -17 -5 -43 20 -56 10 -6 20 -10 22 -10 9 0 27 62 21
71 -8 14 -50 11 -63 -5z"/>
</g>
</svg>
