<?xml version="1.0" standalone="no"?>
<!DOCTYPE svg PUBLIC "-//W3C//DTD SVG 20010904//EN"
 "http://www.w3.org/TR/2001/REC-SVG-20010904/DTD/svg10.dtd">
<svg version="1.0" xmlns="http://www.w3.org/2000/svg"
 width="100.000000pt" height="100.000000pt" viewBox="0 0 100.000000 100.000000"
 preserveAspectRatio="xMidYMid meet">

<g transform="translate(0.000000,100.000000) scale(0.100000,-0.100000)"
fill="#000000" stroke="none">
<path d="M0 500 l0 -500 500 0 500 0 0 500 0 500 -500 0 -500 0 0 -500z m282
54 c3 -130 4 -137 28 -156 17 -14 33 -18 55 -14 50 10 55 27 55 173 l0 133 50
0 50 0 0 -86 c0 -78 -1 -84 -16 -70 -32 32 -68 8 -62 -41 3 -32 38 -44 65 -21
15 12 16 8 11 -35 -7 -60 -44 -102 -103 -118 -48 -13 -122 -6 -164 16 -56 28
-65 55 -69 196 -3 71 -2 135 2 144 4 10 19 15 50 15 l44 0 4 -136z m348 -9 l0
-145 80 0 c86 0 89 -3 65 -51 l-16 -30 -112 3 -112 3 -3 63 c-2 49 0 64 13 68
8 3 15 12 15 19 0 7 6 16 13 19 10 5 10 7 0 12 -18 8 -16 24 2 24 8 0 15 5 15
10 0 6 -13 10 -29 10 -28 0 -28 1 -30 61 -1 33 1 65 5 70 3 5 25 9 50 9 l44 0
0 -145z m-138 -27 c7 -19 -2 -38 -18 -38 -8 0 -14 8 -14 18 0 30 23 44 32 20z"/>
</g>
</svg>
